<svg xmlns="http://www.w3.org/2000/svg" width="36" height="37" fill="none"><mask id="a" width="36" height="37" x="0" y="0" maskUnits="userSpaceOnUse" style="mask-type:luminance"><path fill="#fff" d="M35.75.765H.25v35.5h35.5V.765Z"/></mask><g mask="url(#a)"><path fill="#fff" d="M17.271 36.265h1.479c8.024 0 12.037 0 14.53-2.492 2.491-2.493 2.47-6.504 2.47-14.509v-1.5c0-8.002 0-12.015-2.47-14.508C30.808.765 26.773.765 18.75.765H17.27c-8.025 0-12.037 0-14.53 2.491C.25 5.75.25 9.76.25 17.765v1.5c0 8.004 0 12.015 2.492 14.508 2.492 2.492 6.504 2.492 14.53 2.492Z"/><path fill="#454545" d="M18.024 7.015A8.01 8.01 0 0 0 10 15.039c0 1.683.537 3.26 1.397 4.549l3.116 5.409 3.042 5.268a.5.5 0 0 0 .866 0l3.042-5.268 3.116-5.41c.896-1.289 1.397-2.865 1.397-4.548.072-4.406-3.51-8.024-7.952-8.024Zm0 12.788c-2.58 0-4.693-2.114-4.693-4.693 0-2.579 2.114-4.692 4.693-4.692 2.579-.036 4.692 2.077 4.692 4.656 0 2.615-2.113 4.729-4.692 4.729Z"/></g></svg>