<svg xmlns="http://www.w3.org/2000/svg" width="48" height="49" fill="none"><mask id="a" width="48" height="49" x="0" y="0" maskUnits="userSpaceOnUse" style="mask-type:luminance"><path fill="#fff" d="M48 .786H0v48h48v-48Z"/></mask><g mask="url(#a)"><path fill="#fff" d="M23.015 48.786h1.999c10.85 0 16.275 0 19.645-3.369C48.03 42.047 48 36.623 48 25.8v-2.028c0-10.82 0-16.246-3.34-19.617C41.318.786 35.862.786 25.013.786h-2c-10.85 0-16.275 0-19.645 3.37C0 7.525 0 12.946 0 23.771V25.8c0 10.823 0 16.247 3.37 19.617 3.37 3.37 8.793 3.37 19.645 3.37Z"/><path fill="#454545" d="M11.972 18.034c-.829 3.967 2.295 8.69 6.219 12.613 3.923 3.924 8.646 7.048 12.613 6.219 3.263-.682 4.929-2.42 5.866-3.9.323-.512.16-1.175-.325-1.537l-4.59-3.424a1.243 1.243 0 0 0-1.623.117l-2.437 2.437s-2.369-.77-5.508-3.909c-3.138-3.138-3.908-5.507-3.908-5.507l2.437-2.437a1.243 1.243 0 0 0 .117-1.622l-3.424-4.591c-.362-.485-1.025-.649-1.536-.325-1.481.937-3.22 2.603-3.9 5.866Z"/></g></svg>