<svg xmlns="http://www.w3.org/2000/svg" width="49" height="49" fill="none"><g clip-path="url(#a)"><path fill="#fff" d="M41.591.786h-33.6a7.2 7.2 0 0 0-7.2 7.2v33.6a7.2 7.2 0 0 0 7.2 7.2h33.6a7.2 7.2 0 0 0 7.2-7.2v-33.6a7.2 7.2 0 0 0-7.2-7.2Z"/><path fill="#656565" d="M19.447 38.661c-1.031 0-.937-.375-1.218-1.312l-3-9.844 22.968-13.5"/><path fill="#858585" d="M19.447 38.661c.657 0 1.032-.375 1.5-.75l4.219-4.031-5.25-3.188"/><path fill="#454545" d="m19.916 30.692 12.656 9.282c1.313.843 2.438.375 2.813-1.313l5.156-24.187c.469-2.063-.844-3-2.25-2.344L8.197 23.755c-1.969.75-1.969 1.969-.375 2.437l7.781 2.438 17.813-11.344c.844-.469 1.594-.281 1.031.375"/></g><defs><clipPath id="a"><path fill="#fff" d="M.791.786h48v48h-48z"/></clipPath></defs></svg>