<svg xmlns="http://www.w3.org/2000/svg" width="49" height="49" fill="none"><mask id="a" width="49" height="49" x="0" y="0" maskUnits="userSpaceOnUse" style="mask-type:luminance"><path fill="#fff" d="M48.397.786h-48v48h48v-48Z"/></mask><g mask="url(#a)"><path fill="#fff" d="M23.411 48.786h2c10.85 0 16.275 0 19.645-3.369 3.37-3.37 3.34-8.794 3.34-19.617v-2.028c0-10.82 0-16.246-3.34-19.617C41.716.786 36.259.786 25.41.786h-1.999c-10.851 0-16.275 0-19.645 3.37-3.37 3.37-3.37 8.791-3.37 19.616V25.8c0 10.823 0 16.247 3.37 19.617 3.37 3.37 8.794 3.37 19.645 3.37Z"/><path fill="#454545" d="M26.154 35.394c-10.823 0-17.392-7.508-17.647-19.987h5.482c.17 9.165 4.341 13.056 7.538 13.849v-13.85h5.255v7.91c3.083-.344 6.308-3.941 7.395-7.91h5.167c-.828 4.883-4.34 8.48-6.823 9.966 2.483 1.2 6.481 4.341 8.023 10.022h-5.681c-1.2-3.798-4.142-6.74-8.081-7.14v7.14h-.629.001Z"/></g></svg>