<svg xmlns="http://www.w3.org/2000/svg" width="72" height="59" fill="none"><g clip-path="url(#a)"><g filter="url(#b)"><path fill="#fff" d="M15.536 57.856H1.643V1.231H23.01l12.946 40.627L48.795 1.23h21.367v56.625H56.269V13.019L41.007 57.856h-10.21l-15.26-44.837v44.837Z"/></g><g clip-path="url(#c)"><rect width="32.348" height="32.348" x="10.49" y="9.072" fill="#fff" rx="16.174" transform="rotate(-17.701 10.49 9.072)"/><path fill="#387A22" d="M46.169 24.597c1.03-3.155 1.117-6.627.055-9.956-1.72-5.387-6.028-9.42-11.53-10.781-.214-.054-.436-.092-.655-.138a.506.506 0 0 0-.145-.028 16.092 16.092 0 0 0-7.995.46 16.1 16.1 0 0 0-7.288 4.805c-3.734 4.303-4.931 10.105-3.202 15.524a16.074 16.074 0 0 0 7.905 9.405c.295.157.592.3.893.435l.055.023c.341.156.691.296 1.044.421l.022.006a16 16 0 0 0 10.4.2c1.19-.38 2.316-.895 3.365-1.523l.012-.004c.149-.088.3-.17.446-.264 3.187-2.036 5.445-5.066 6.586-8.473.016-.033.019-.068.034-.106l-.002-.006Zm-.923-1.465-2.44-2.625-1.72-5.387 1.687-4.417a14.884 14.884 0 0 1 2.473 12.429Zm-11.584 6.326-6.307.878-3.58-4.196 1.876-5.293 6.144-.602 3.382 4.49-1.507 4.727-.008-.004ZM24 10.52l5.894-1.107 3.558 4.061-1.468 4.402-.362 1.08-6.197.605-4.296-4.225 2.87-4.816Zm17.835-.971-1.82 4.765-5.474-1.554-3.555-4.055 3.064-3.654c.11.026.218.045.329.071a14.805 14.805 0 0 1 7.452 4.435l.005-.008Zm-22.25.248c.114-.132.237-.26.359-.387l2.68.884-2.8 4.697-3.784 2.743a14.845 14.845 0 0 1 3.545-7.938Zm-2.513 15.446 5.609 1.593 3.646 4.277-1.082 2.227-.498-.201a14.78 14.78 0 0 1-7.68-7.894l.005-.002Zm21.775 6.84c-.045.027-.086.047-.131.075l-3.79-2.404 1.509-4.72 5.68-3.375 2.703 2.914a14.808 14.808 0 0 1-5.97 7.51Z"/></g></g><defs><clipPath id="a"><path fill="#fff" d="M0 0h71.645v59.002H0z"/></clipPath><clipPath id="c"><path fill="#fff" d="M24.186 4.7 41.349-.778l9.835 30.817-17.163 5.478z"/></clipPath><filter id="b" width="75.255" height="63.361" x="-1.725" y="-2.137" color-interpolation-filters="sRGB" filterUnits="userSpaceOnUse"><feFlood flood-opacity="0" result="BackgroundImageFix"/><feColorMatrix in="SourceAlpha" result="hardAlpha" values="0 0 0 0 0 0 0 0 0 0 0 0 0 0 0 0 0 0 127 0"/><feOffset/><feGaussianBlur stdDeviation="1.684"/><feComposite in2="hardAlpha" operator="out"/><feColorMatrix values="0 0 0 0 0 0 0 0 0 0 0 0 0 0 0 0 0 0 0.25 0"/><feBlend in2="BackgroundImageFix" result="effect1_dropShadow_2983_582"/><feBlend in="SourceGraphic" in2="effect1_dropShadow_2983_582" result="shape"/></filter></defs></svg>