<svg xmlns="http://www.w3.org/2000/svg" width="547" height="184" fill="none" viewBox="0 0 547 184"><g clip-path="url(#clip0_3320_179)"><g filter="url(#filter0_d_3320_179)"><path fill="#fff" d="M25.125 76H8.625V8.74999H34L49.375 57L64.625 8.74999H90V76H73.5V22.75L55.375 76H43.25L25.125 22.75V76ZM107.133 97.875H99.8828V84.625H106.383C112.133 84.625 114.633 84.75 117.633 77.625L118.383 75.75L92.6328 8.74999H111.508L126.758 57.25L142.383 8.74999H159.883L135.258 74C127.258 94.875 123.883 97.875 107.133 97.875ZM194.882 64.375C203.882 64.375 210.257 55.625 210.257 42.5C210.257 29.375 203.882 20.5 194.882 20.5C185.382 20.5 179.132 28.875 179.132 42.375C179.132 56.25 185.382 64.375 194.882 64.375ZM179.757 97.875H162.507V8.74999H179.757V17.375C183.382 11 190.632 7.25 199.132 7.25C215.382 7.25 228.382 21.25 228.382 42.375C228.382 63.875 215.007 77.625 199.007 77.625C192.007 77.625 184.132 75 179.757 67.5V97.875ZM250.138 76H232.888V8.74999H249.763V54.625L279.388 8.74999H296.638V76H279.763V31.75L250.138 76ZM318.692 76H301.442V8.74999H318.692V34.75H346.692V8.74999H363.942V76H346.692V48.375H318.692V76ZM402.029 20.75C392.529 20.75 385.779 28.375 385.779 42.5C385.779 56.625 392.529 64.125 402.029 64.125C411.529 64.125 418.279 56.625 418.279 42.5C418.279 28.375 411.529 20.75 402.029 20.75ZM402.029 77.625C385.029 77.625 368.279 66 368.279 42.5C368.279 18.875 385.029 7.25 402.029 7.25C419.029 7.25 435.779 18.875 435.779 42.5C435.779 66 419.029 77.625 402.029 77.625Z"/></g><g filter="url(#filter1_d_3320_179)"><path fill="#fff" d="M242.75 132.25V127.25C223.375 129.25 215.75 131.5 215.75 139C215.75 143.875 219.5 147.875 227.375 147.875C238.25 147.875 242.75 142.125 242.75 132.25ZM244.25 149.625C239.375 156.625 232.375 159.625 222.25 159.625C209.375 159.625 198 152.125 198 139.875C198 124 215.75 119.25 242.25 116.25V115.125C242.25 104.75 236.625 101.125 229.625 101.125C223 101.125 217.5 104.5 217.125 112H201C202.375 98.75 213.125 89 230.5 89C246.375 89 259.5 96 259.5 118.625C259.5 120.625 259.25 129.75 259.25 135.75C259.25 146.375 259.875 152.375 261.25 158H245.375C244.875 155.875 244.625 153 244.25 149.625ZM300.87 146.375C309.87 146.375 316.245 137.625 316.245 124.5C316.245 111.375 309.87 102.5 300.87 102.5C291.37 102.5 285.12 110.875 285.12 124.375C285.12 138.25 291.37 146.375 300.87 146.375ZM285.745 179.875H268.495V90.75H285.745V99.375C289.37 93 296.62 89.25 305.12 89.25C321.37 89.25 334.37 103.25 334.37 124.375C334.37 145.875 320.995 159.625 304.995 159.625C297.995 159.625 290.12 157 285.745 149.5V179.875ZM402.603 129.125H352.978C353.978 140.625 361.728 146.25 369.978 146.25C375.353 146.25 380.603 144.375 384.103 138.5H401.853C398.228 148.5 388.478 159.625 370.103 159.625C348.478 159.625 335.853 143.5 335.853 124.125C335.853 104.125 349.728 89.25 369.603 89.25C390.353 89.25 403.228 105.375 402.603 129.125ZM369.478 101.875C362.978 101.875 354.603 105.875 353.228 117.25H385.103C384.728 105.875 376.728 101.875 369.478 101.875ZM425.589 158H408.339V90.75H425.589V116.75H453.589V90.75H470.839V158H453.589V130.375H425.589V158ZM522.926 132.25V127.25C503.551 129.25 495.926 131.5 495.926 139C495.926 143.875 499.676 147.875 507.551 147.875C518.426 147.875 522.926 142.125 522.926 132.25ZM524.426 149.625C519.551 156.625 512.551 159.625 502.426 159.625C489.551 159.625 478.176 152.125 478.176 139.875C478.176 124 495.926 119.25 522.426 116.25V115.125C522.426 104.75 516.801 101.125 509.801 101.125C503.176 101.125 497.676 104.5 497.301 112H481.176C482.551 98.75 493.301 89 510.676 89C526.551 89 539.676 96 539.676 118.625C539.676 120.625 539.426 129.75 539.426 135.75C539.426 146.375 540.051 152.375 541.426 158H525.551C525.051 155.875 524.801 153 524.426 149.625Z"/></g></g><defs><filter id="filter0_d_3320_179" width="435.154" height="98.625" x="4.625" y="3.25" color-interpolation-filters="sRGB" filterUnits="userSpaceOnUse"><feFlood flood-opacity="0" result="BackgroundImageFix"/><feColorMatrix in="SourceAlpha" result="hardAlpha" type="matrix" values="0 0 0 0 0 0 0 0 0 0 0 0 0 0 0 0 0 0 127 0"/><feOffset/><feGaussianBlur stdDeviation="2"/><feComposite in2="hardAlpha" operator="out"/><feColorMatrix type="matrix" values="0 0 0 0 0 0 0 0 0 0 0 0 0 0 0 0 0 0 0.25 0"/><feBlend in2="BackgroundImageFix" mode="normal" result="effect1_dropShadow_3320_179"/><feBlend in="SourceGraphic" in2="effect1_dropShadow_3320_179" mode="normal" result="shape"/></filter><filter id="filter1_d_3320_179" width="351.426" height="98.875" x="194" y="85" color-interpolation-filters="sRGB" filterUnits="userSpaceOnUse"><feFlood flood-opacity="0" result="BackgroundImageFix"/><feColorMatrix in="SourceAlpha" result="hardAlpha" type="matrix" values="0 0 0 0 0 0 0 0 0 0 0 0 0 0 0 0 0 0 127 0"/><feOffset/><feGaussianBlur stdDeviation="2"/><feComposite in2="hardAlpha" operator="out"/><feColorMatrix type="matrix" values="0 0 0 0 0 0 0 0 0 0 0 0 0 0 0 0 0 0 0.25 0"/><feBlend in2="BackgroundImageFix" mode="normal" result="effect1_dropShadow_3320_179"/><feBlend in="SourceGraphic" in2="effect1_dropShadow_3320_179" mode="normal" result="shape"/></filter><clipPath id="clip0_3320_179"><rect width="547" height="184" fill="#fff"/></clipPath></defs></svg>