<svg width="821" height="646" viewBox="0 0 821 646" fill="none" xmlns="http://www.w3.org/2000/svg">
<g id="Group 52">
<g id="fields">
<rect x="430.5" y="2" width="389" height="642" fill="white"/>
<rect x="430.5" y="2" width="389" height="642" stroke="#454545" stroke-width="3"/>
<g id="Frame 199">
<mask id="path-2-inside-1_3482_3185" fill="white">
<rect x="449" y="30.5" width="352" height="175" rx="2"/>
</mask>
<rect x="449" y="30.5" width="352" height="175" rx="2" fill="white"/>
<rect x="449" y="30.5" width="352" height="175" rx="2" stroke="#454545" stroke-width="6" mask="url(#path-2-inside-1_3482_3185)"/>
<rect id="Rectangle 85" x="624" y="30.5" width="3" height="175" fill="#454545"/>
<circle id="Ellipse 1" cx="625" cy="118.5" r="48.5" stroke="#454545" stroke-width="3"/>
<path id="Ellipse 2" d="M450.5 70.0232C456.358 70.2044 462.138 71.446 467.56 73.6918C473.444 76.1292 478.791 79.7017 483.295 84.2053C487.798 88.709 491.371 94.0556 493.808 99.9399C496.246 105.824 497.5 112.131 497.5 118.5C497.5 124.869 496.246 131.176 493.808 137.06C491.371 142.944 487.798 148.291 483.295 152.795C478.791 157.298 473.444 160.871 467.56 163.308C462.138 165.554 456.358 166.796 450.5 166.977V70.0232Z" fill="#D9D9D9" stroke="#454545" stroke-width="3"/>
<path id="Ellipse 3" d="M799.5 166.977C793.642 166.796 787.862 165.554 782.44 163.308C776.556 160.871 771.209 157.298 766.705 152.795C762.202 148.291 758.629 142.944 756.192 137.06C753.754 131.176 752.5 124.869 752.5 118.5C752.5 112.131 753.754 105.824 756.192 99.9399C758.629 94.0556 762.202 88.709 766.705 84.2053C771.209 79.7017 776.556 76.1292 782.44 73.6918C787.862 71.446 793.642 70.2044 799.5 70.0232L799.5 166.977Z" fill="#D9D9D9" stroke="#454545" stroke-width="3"/>
</g>
<g id="Frame 200">
<mask id="path-7-inside-2_3482_3185" fill="white">
<rect x="449" y="235.5" width="352" height="175" rx="2"/>
</mask>
<rect x="449" y="235.5" width="352" height="175" rx="2" fill="white"/>
<rect x="449" y="235.5" width="352" height="175" rx="2" stroke="#454545" stroke-width="6" mask="url(#path-7-inside-2_3482_3185)"/>
<rect id="Rectangle 85_2" x="624" y="235.5" width="3" height="175" fill="#454545"/>
<circle id="Ellipse 1_2" cx="625" cy="323.5" r="48.5" stroke="#454545" stroke-width="3"/>
<path id="Ellipse 2_2" d="M450.5 275.023C456.358 275.204 462.138 276.446 467.56 278.692C473.444 281.129 478.791 284.702 483.295 289.205C487.798 293.709 491.371 299.056 493.808 304.94C496.246 310.824 497.5 317.131 497.5 323.5C497.5 329.869 496.246 336.176 493.808 342.06C491.371 347.944 487.798 353.291 483.295 357.795C478.791 362.298 473.444 365.871 467.56 368.308C462.138 370.554 456.358 371.796 450.5 371.977V275.023Z" fill="#D9D9D9" stroke="#454545" stroke-width="3"/>
<path id="Ellipse 3_2" d="M799.5 371.977C793.642 371.796 787.862 370.554 782.44 368.308C776.556 365.871 771.209 362.298 766.705 357.795C762.202 353.291 758.629 347.944 756.192 342.06C753.754 336.176 752.5 329.869 752.5 323.5C752.5 317.131 753.754 310.824 756.192 304.94C758.629 299.056 762.202 293.709 766.705 289.205C771.209 284.702 776.556 281.129 782.44 278.692C787.862 276.446 793.642 275.204 799.5 275.023L799.5 371.977Z" fill="#D9D9D9" stroke="#454545" stroke-width="3"/>
</g>
<g id="Frame 201">
<mask id="path-12-inside-3_3482_3185" fill="white">
<rect x="449" y="440.5" width="352" height="175" rx="2"/>
</mask>
<rect x="449" y="440.5" width="352" height="175" rx="2" fill="white"/>
<rect x="449" y="440.5" width="352" height="175" rx="2" stroke="#454545" stroke-width="6" mask="url(#path-12-inside-3_3482_3185)"/>
<rect id="Rectangle 85_3" x="624" y="440.5" width="3" height="175" fill="#454545"/>
<circle id="Ellipse 1_3" cx="625" cy="528.5" r="48.5" stroke="#454545" stroke-width="3"/>
<path id="Ellipse 2_3" d="M450.5 480.023C456.358 480.204 462.138 481.446 467.56 483.692C473.444 486.129 478.791 489.702 483.295 494.205C487.798 498.709 491.371 504.056 493.808 509.94C496.246 515.824 497.5 522.131 497.5 528.5C497.5 534.869 496.246 541.176 493.808 547.06C491.371 552.944 487.798 558.291 483.295 562.795C478.791 567.298 473.444 570.871 467.56 573.308C462.138 575.554 456.358 576.796 450.5 576.977V480.023Z" fill="#D9D9D9" stroke="#454545" stroke-width="3"/>
<path id="Ellipse 3_3" d="M799.5 576.977C793.642 576.796 787.862 575.554 782.44 573.308C776.556 570.871 771.209 567.298 766.705 562.795C762.202 558.291 758.629 552.944 756.192 547.06C753.754 541.176 752.5 534.869 752.5 528.5C752.5 522.131 753.754 515.824 756.192 509.94C758.629 504.056 762.202 498.709 766.705 494.205C771.209 489.702 776.556 486.129 782.44 483.692C787.862 481.446 793.642 480.204 799.5 480.023L799.5 576.977Z" fill="#D9D9D9" stroke="#454545" stroke-width="3"/>
</g>
</g>
<g id="parking">
<rect width="340" height="201" transform="translate(0 381.5)" fill="white"/>
<g id="Union">
<path fill-rule="evenodd" clip-rule="evenodd" d="M81.7574 383.102L81.6196 381.946C82.6449 381.839 83.4078 381.751 84.003 381.682C85.0578 381.561 85.5857 381.5 86.1136 381.5C86.6426 381.5 87.1716 381.561 88.2306 381.682C88.827 381.751 89.5914 381.839 90.6187 381.946L90.4803 383.102L92.7195 384.1L92.3692 383.091L90.7991 382.561L90.8516 382.02L92.5706 382.54L93.7909 384.885L93.8131 392.494C93.9334 392.519 94.0502 392.543 94.163 392.566C95.6117 392.865 96.4218 393.031 96.1364 394.075L93.8131 393.566L93.8867 415.203L93.2613 417.049L92.3907 417.452C87.9766 417.516 84.2512 417.516 79.8475 417.452L78.9775 417.049L78.351 415.203L78.4147 393.555L76.0587 394.075C75.7681 393.036 76.5778 392.868 78.0086 392.57C78.142 392.543 78.2808 392.514 78.4246 392.483L78.4462 384.885L79.6566 382.54L81.3755 382.02L81.4386 382.561L79.8575 383.091L79.5071 384.1L81.7574 383.102ZM79.9637 413.314L82.3307 413.887C85.2484 413.801 86.9782 413.801 89.9069 413.887L92.274 413.314L90.788 409.525C87.6689 409.536 84.5699 409.536 81.4497 409.525L79.9637 413.314ZM79.5713 393.777L80.7385 397.375C82.0546 396.749 90.1831 396.749 91.4992 397.375L92.6664 393.777C92.3804 393.653 92.1108 393.533 91.8523 393.417L91.8514 393.416C90.2496 392.699 89.0721 392.172 87.0529 392.282H85.1853C83.1669 392.172 81.9899 392.699 80.3885 393.416C80.129 393.532 79.8584 393.653 79.5713 393.777ZM91.9131 398.128L92.8047 395.836V407.265L91.6801 407.859L91.9131 398.128ZM80.3135 398.128L79.423 395.836L79.4335 407.265L80.5476 407.859L80.3135 398.128Z" fill="#454545"/>
<path d="M39 381.5H36V423.5H0V426.5H36V466.5H39V426.5L69 426.5V466.5H72V426.5H102V466.5H105V426.5L135 426.5V466.5H138V426.5H168V466.5H171V426.5H201V466.5H204V426.5L234 426.5V466.5H237V426.5H267V466.5H270V426.5L300 426.5V466.5H303V426.5H340V423.5H303V381.5H300V423.5L270 423.5V381.5H267V423.5H237V381.5H234V423.5L204 423.5V381.5H201V423.5H171V381.5H168V423.5H138V381.5H135V423.5L105 423.5V381.5H102V423.5H72V381.5H69V423.5L39 423.5V381.5Z" fill="#454545"/>
<path fill-rule="evenodd" clip-rule="evenodd" d="M115.063 381.946L115.201 383.102L112.95 384.1L113.301 383.091L114.882 382.561L114.819 382.02L113.1 382.54L111.889 384.885L111.868 392.483C111.724 392.514 111.585 392.543 111.452 392.57C110.021 392.868 109.211 393.036 109.502 394.075L111.858 393.555L111.794 415.203L112.421 417.049L113.291 417.452C117.694 417.516 121.42 417.516 125.834 417.452L126.704 417.049L127.33 415.203L127.256 393.566L129.58 394.075C129.865 393.031 129.055 392.865 127.606 392.566C127.493 392.543 127.377 392.519 127.256 392.494L127.234 384.885L126.014 382.54L124.295 382.02L124.242 382.561L125.812 383.091L126.163 384.1L123.924 383.102L124.062 381.946C123.035 381.839 122.27 381.751 121.674 381.682C120.615 381.561 120.086 381.5 119.557 381.5C119.029 381.5 118.501 381.561 117.446 381.682C116.851 381.751 116.088 381.839 115.063 381.946ZM115.774 413.887L113.407 413.314L114.893 409.525C118.013 409.536 121.112 409.536 124.231 409.525L125.717 413.314L123.35 413.887C120.421 413.801 118.692 413.801 115.774 413.887ZM114.182 397.375L113.015 393.777C113.302 393.653 113.572 393.532 113.832 393.416C115.433 392.699 116.61 392.172 118.629 392.282H120.496C122.515 392.172 123.693 392.699 125.295 393.416L125.296 393.417C125.554 393.533 125.824 393.653 126.11 393.777L124.942 397.375C123.626 396.749 115.498 396.749 114.182 397.375ZM126.248 395.836L125.356 398.128L125.123 407.859L126.248 407.265V395.836ZM112.866 395.836L113.757 398.128L113.991 407.859L112.877 407.265L112.866 395.836Z" fill="#454545"/>
<path fill-rule="evenodd" clip-rule="evenodd" d="M148.644 383.102L148.506 381.946C149.531 381.839 150.294 381.751 150.889 381.682C151.944 381.561 152.472 381.5 153 381.5C153.529 381.5 154.058 381.561 155.117 381.682C155.713 381.751 156.478 381.839 157.505 381.946L157.367 383.102L159.606 384.1L159.256 383.091L157.685 382.561L157.738 382.02L159.457 382.54L160.677 384.885L160.699 392.494C160.82 392.519 160.937 392.543 161.049 392.566C162.498 392.865 163.308 393.031 163.023 394.075L160.699 393.566L160.773 415.203L160.148 417.049L159.277 417.452C154.863 417.516 151.138 417.516 146.734 417.452L145.864 417.049L145.237 415.203L145.301 393.555L142.945 394.075C142.655 393.036 143.464 392.868 144.895 392.57L144.898 392.57C145.03 392.542 145.168 392.514 145.311 392.483L145.333 384.885L146.543 382.54L148.262 382.02L148.325 382.561L146.744 383.091L146.394 384.1L148.644 383.102ZM146.85 413.314L149.217 413.887C152.135 413.801 153.865 413.801 156.793 413.887L159.16 413.314L157.674 409.525C154.555 409.536 151.456 409.536 148.336 409.525L146.85 413.314ZM146.458 393.777L147.625 397.375C148.941 396.749 157.07 396.749 158.386 397.375L159.553 393.777C159.267 393.653 158.998 393.533 158.74 393.417L158.738 393.416C157.136 392.699 155.959 392.172 153.939 392.282H152.072C150.053 392.172 148.876 392.699 147.275 393.416C147.016 393.532 146.745 393.653 146.458 393.777ZM158.8 398.128L159.691 395.836V407.265L158.567 407.859L158.8 398.128ZM147.2 398.128L146.309 395.836L146.32 407.265L147.434 407.859L147.2 398.128Z" fill="#454545"/>
<path fill-rule="evenodd" clip-rule="evenodd" d="M181.949 381.946L182.087 383.102L179.837 384.1L180.187 383.091L181.768 382.561L181.705 382.02L179.986 382.54L178.776 384.885L178.754 392.483C178.611 392.514 178.474 392.542 178.341 392.57L178.339 392.57C176.908 392.868 176.098 393.036 176.388 394.075L178.744 393.555L178.681 415.203L179.307 417.049L180.177 417.452C184.581 417.516 188.306 417.516 192.72 417.452L193.591 417.049L194.216 415.203L194.143 393.566L196.466 394.075C196.751 393.031 195.941 392.865 194.493 392.566C194.38 392.543 194.263 392.519 194.143 392.494L194.121 384.885L192.9 382.54L191.181 382.02L191.129 382.561L192.699 383.091L193.049 384.1L190.81 383.102L190.948 381.946C189.921 381.839 189.157 381.751 188.56 381.682C187.501 381.561 186.972 381.5 186.443 381.5C185.915 381.5 185.387 381.561 184.333 381.682C183.737 381.751 182.974 381.839 181.949 381.946ZM182.66 413.887L180.293 413.314L181.779 409.525C184.9 409.536 187.998 409.536 191.118 409.525L192.604 413.314L190.237 413.887C187.308 413.801 185.578 413.801 182.66 413.887ZM181.068 397.375L179.901 393.777C180.188 393.653 180.459 393.532 180.718 393.416C182.319 392.699 183.497 392.172 185.515 392.282H187.383C189.402 392.172 190.579 392.699 192.181 393.416L192.182 393.417C192.44 393.532 192.71 393.653 192.996 393.777L191.829 397.375C190.513 396.749 182.384 396.749 181.068 397.375ZM193.134 395.836L192.243 398.128L192.01 407.859L193.134 407.265V395.836ZM179.753 395.836L180.643 398.128L180.877 407.859L179.763 407.265L179.753 395.836Z" fill="#454545"/>
<path fill-rule="evenodd" clip-rule="evenodd" d="M81.7574 432.102L81.6196 430.946C82.6449 430.839 83.4078 430.751 84.003 430.682C85.0577 430.561 85.5857 430.5 86.1136 430.5C86.6426 430.5 87.1715 430.561 88.2304 430.682C88.8267 430.751 89.5917 430.839 90.6187 430.946L90.4803 432.102L92.7195 433.1L92.3692 432.091L90.7991 431.561L90.8516 431.02L92.5706 431.54L93.7909 433.885L93.8131 441.494C93.9332 441.519 94.0497 441.543 94.1623 441.566C95.611 441.864 96.4218 442.031 96.1364 443.075L93.8131 442.566L93.8867 464.203L93.2613 466.049L92.3907 466.452C87.9766 466.516 84.2512 466.516 79.8475 466.452L78.9775 466.049L78.351 464.203L78.4147 442.555L76.0587 443.075C75.7681 442.036 76.5778 441.868 78.0086 441.57C78.1419 441.543 78.281 441.514 78.4246 441.483L78.4462 433.885L79.6566 431.54L81.3755 431.02L81.4386 431.561L79.8575 432.091L79.5071 433.1L81.7574 432.102ZM79.9637 462.314L82.3307 462.887C85.2484 462.801 86.9782 462.801 89.9069 462.887L92.274 462.314L90.788 458.525C87.6689 458.536 84.5699 458.536 81.4497 458.525L79.9637 462.314ZM79.5713 442.777L80.7385 446.375C82.0546 445.749 90.1831 445.749 91.4992 446.375L92.6664 442.777C92.3801 442.653 92.1102 442.532 91.8514 442.416C90.2496 441.699 89.0721 441.172 87.0529 441.282H85.1853C83.1669 441.172 81.9899 441.699 80.3885 442.416C80.129 442.532 79.8584 442.653 79.5713 442.777ZM91.9131 447.128L92.8047 444.836V456.265L91.6801 456.859L91.9131 447.128ZM80.3135 447.128L79.423 444.836L79.4335 456.265L80.5476 456.859L80.3135 447.128Z" fill="#454545"/>
<path fill-rule="evenodd" clip-rule="evenodd" d="M115.063 430.946L115.201 432.102L112.95 433.1L113.301 432.091L114.882 431.561L114.819 431.02L113.1 431.54L111.889 433.885L111.868 441.483C111.724 441.514 111.586 441.543 111.452 441.57C110.021 441.868 109.211 442.036 109.502 443.075L111.858 442.555L111.794 464.203L112.421 466.049L113.291 466.452C117.694 466.516 121.42 466.516 125.834 466.452L126.704 466.049L127.33 464.203L127.256 442.566L129.58 443.075C129.865 442.031 129.055 441.865 127.606 441.566C127.493 441.543 127.377 441.519 127.256 441.494L127.234 433.885L126.014 431.54L124.295 431.02L124.242 431.561L125.812 432.091L126.163 433.1L123.924 432.102L124.062 430.946C123.035 430.839 122.271 430.751 121.674 430.682C120.615 430.561 120.086 430.5 119.557 430.5C119.029 430.5 118.501 430.561 117.446 430.682C116.851 430.751 116.088 430.839 115.063 430.946ZM115.774 462.887L113.407 462.314L114.893 458.525C118.013 458.536 121.112 458.536 124.231 458.525L125.717 462.314L123.35 462.887C120.421 462.801 118.692 462.801 115.774 462.887ZM114.182 446.375L113.015 442.777C113.302 442.653 113.572 442.532 113.832 442.416C115.433 441.699 116.61 441.172 118.629 441.282H120.496C122.515 441.172 123.693 441.699 125.295 442.416C125.553 442.532 125.823 442.653 126.11 442.777L124.942 446.375C123.626 445.749 115.498 445.749 114.182 446.375ZM126.248 444.836L125.356 447.128L125.123 456.859L126.248 456.265V444.836ZM112.866 444.836L113.757 447.128L113.991 456.859L112.877 456.265L112.866 444.836Z" fill="#454545"/>
<path d="M36 497.5H39V539.5H69V497.5H72V539.5H102V497.5H105V539.5H135V497.5H138V539.5H168V497.5H171V539.5H201V497.5H204V539.5H234V497.5H237V539.5H267V497.5H270V539.5H300V497.5H303V539.5H340V542.5H303V582.5H300V542.5H270V582.5H267V542.5H237V582.5H234V542.5H204V582.5H201V542.5H171V582.5H168V542.5H138V582.5H135V542.5H105V582.5H102V542.5H72V582.5H69V542.5H39V582.5H36V542.5H0V539.5H36V497.5Z" fill="#454545"/>
<path fill-rule="evenodd" clip-rule="evenodd" d="M247.757 499.102L247.62 497.946C248.645 497.839 249.408 497.751 250.003 497.682C251.058 497.561 251.586 497.5 252.114 497.5C252.643 497.5 253.172 497.561 254.231 497.682C254.827 497.751 255.591 497.839 256.619 497.946L256.48 499.102L258.719 500.1L258.369 499.091L256.799 498.561L256.852 498.02L258.571 498.54L259.791 500.885L259.813 508.494C259.933 508.519 260.05 508.543 260.163 508.566C261.612 508.865 262.422 509.031 262.136 510.075L259.813 509.566L259.887 531.203L259.261 533.049L258.391 533.452C253.977 533.516 250.251 533.516 245.848 533.452L244.978 533.049L244.351 531.203L244.415 509.555L242.059 510.075C241.768 509.036 242.578 508.868 244.009 508.57C244.142 508.543 244.281 508.514 244.425 508.483L244.446 500.885L245.657 498.54L247.376 498.02L247.439 498.561L245.857 499.091L245.507 500.1L247.757 499.102ZM245.964 529.314L248.331 529.887C251.248 529.801 252.978 529.801 255.907 529.887L258.274 529.314L256.788 525.525C253.669 525.536 250.57 525.536 247.45 525.525L245.964 529.314ZM245.571 509.777L246.739 513.375C248.055 512.749 256.183 512.749 257.499 513.375L258.666 509.777C258.548 509.726 258.432 509.675 258.319 509.625L258.174 509.561L258.034 509.498L257.851 509.416C256.25 508.699 255.072 508.172 253.053 508.282H251.185C249.167 508.172 247.99 508.699 246.388 509.416C246.129 509.532 245.858 509.653 245.571 509.777ZM257.913 514.128L258.805 511.836V523.265L257.68 523.859L257.913 514.128ZM246.313 514.128L245.423 511.836L245.434 523.265L246.548 523.859L246.313 514.128Z" fill="#454545"/>
<path fill-rule="evenodd" clip-rule="evenodd" d="M281.063 497.946L281.201 499.102L278.95 500.1L279.301 499.091L280.882 498.561L280.819 498.02L279.1 498.54L277.889 500.885L277.868 508.483C277.724 508.514 277.585 508.543 277.452 508.57C276.021 508.868 275.211 509.036 275.502 510.075L277.858 509.555L277.794 531.203L278.421 533.049L279.291 533.452C283.694 533.516 287.42 533.516 291.834 533.452L292.704 533.049L293.33 531.203L293.256 509.566L295.58 510.075C295.865 509.031 295.055 508.865 293.606 508.566C293.493 508.543 293.377 508.519 293.256 508.494L293.234 500.885L292.014 498.54L290.295 498.02L290.242 498.561L291.812 499.091L292.163 500.1L289.923 499.102L290.062 497.946C289.035 497.839 288.27 497.751 287.674 497.682C286.615 497.561 286.086 497.5 285.557 497.5C285.029 497.5 284.501 497.561 283.446 497.682C282.851 497.751 282.088 497.839 281.063 497.946ZM281.774 529.887L279.407 529.314L280.893 525.525C284.013 525.536 287.112 525.536 290.231 525.525L291.717 529.314L289.35 529.887C286.421 529.801 284.692 529.801 281.774 529.887ZM280.182 513.375L279.015 509.777C279.301 509.653 279.572 509.532 279.831 509.416C281.433 508.699 282.61 508.172 284.629 508.282H286.496C288.515 508.172 289.693 508.699 291.295 509.416L291.296 509.417C291.554 509.533 291.824 509.653 292.11 509.777L290.942 513.375C289.626 512.749 281.498 512.749 280.182 513.375ZM292.248 511.836L291.356 514.128L291.123 523.859L292.248 523.265V511.836ZM278.866 511.836L279.757 514.128L279.991 523.859L278.877 523.265L278.866 511.836Z" fill="#454545"/>
<path fill-rule="evenodd" clip-rule="evenodd" d="M214.757 548.102L214.62 546.946C215.645 546.839 216.408 546.751 217.003 546.682C218.057 546.561 218.586 546.5 219.114 546.5C219.643 546.5 220.171 546.561 221.23 546.682C221.827 546.751 222.592 546.839 223.619 546.946L223.48 548.102L225.719 549.1L225.369 548.091L223.799 547.561L223.852 547.02L225.571 547.54L226.791 549.885L226.813 557.494L226.944 557.521L227.163 557.566C228.612 557.865 229.422 558.031 229.136 559.075L226.813 558.566L226.887 580.203L226.261 582.049L225.391 582.452C220.977 582.516 217.251 582.516 212.848 582.452L211.978 582.049L211.351 580.203L211.415 558.555L209.059 559.075C208.768 558.036 209.578 557.868 211.009 557.57L211.227 557.525C211.292 557.511 211.358 557.497 211.425 557.483L211.446 549.885L212.657 547.54L214.376 547.02L214.439 547.561L212.857 548.091L212.507 549.1L214.757 548.102ZM212.964 578.314L215.331 578.887C218.248 578.801 219.978 578.801 222.907 578.887L225.274 578.314L223.788 574.525C220.669 574.536 217.57 574.536 214.45 574.525L212.964 578.314ZM212.571 558.777L213.739 562.375C215.055 561.749 223.183 561.749 224.499 562.375L225.666 558.777C225.38 558.653 225.11 558.532 224.851 558.416C223.25 557.699 222.072 557.172 220.053 557.282H218.185C216.167 557.172 214.99 557.699 213.388 558.416C213.129 558.532 212.858 558.653 212.571 558.777ZM224.913 563.128L225.805 560.836V572.265L224.68 572.859L224.913 563.128ZM213.313 563.128L212.423 560.836L212.434 572.265L213.548 572.859L213.313 563.128Z" fill="#454545"/>
<path fill-rule="evenodd" clip-rule="evenodd" d="M248.063 546.946L248.201 548.102L245.95 549.1L246.301 548.091L247.882 547.561L247.819 547.02L246.1 547.54L244.889 549.885L244.868 557.483C244.724 557.514 244.585 557.543 244.452 557.57C243.021 557.868 242.211 558.036 242.502 559.075L244.858 558.555L244.794 580.203L245.421 582.049L246.291 582.452C250.694 582.516 254.42 582.516 258.834 582.452L259.704 582.049L260.33 580.203L260.256 558.566L262.58 559.075C262.865 558.031 262.055 557.865 260.606 557.566C260.493 557.543 260.377 557.519 260.256 557.494L260.234 549.885L259.014 547.54L257.295 547.02L257.242 547.561L258.812 548.091L259.163 549.1L256.923 548.102L257.062 546.946C256.035 546.839 255.27 546.751 254.674 546.682C253.615 546.561 253.086 546.5 252.557 546.5C252.029 546.5 251.501 546.561 250.447 546.682C249.851 546.751 249.088 546.839 248.063 546.946ZM248.774 578.887L246.407 578.314L247.893 574.525C251.013 574.536 254.112 574.536 257.231 574.525L258.717 578.314L256.35 578.887C253.421 578.801 251.692 578.801 248.774 578.887ZM247.182 562.375L246.015 558.777C246.3 558.653 246.57 558.533 246.828 558.417L246.831 558.416C248.433 557.699 249.61 557.172 251.629 557.282H253.496C255.515 557.172 256.693 557.699 258.295 558.416C258.553 558.532 258.823 558.653 259.11 558.777L257.942 562.375C256.626 561.749 248.498 561.749 247.182 562.375ZM259.248 560.836L258.356 563.128L258.123 572.859L259.248 572.265V560.836ZM245.866 560.836L246.757 563.128L246.991 572.859L245.877 572.265L245.866 560.836Z" fill="#454545"/>
<path fill-rule="evenodd" clip-rule="evenodd" d="M115.757 548.102L115.62 546.946C116.645 546.839 117.408 546.751 118.003 546.682C119.057 546.561 119.586 546.5 120.114 546.5C120.643 546.5 121.172 546.561 122.231 546.682C122.827 546.751 123.592 546.839 124.619 546.946L124.48 548.102L126.719 549.1L126.369 548.091L124.799 547.561L124.852 547.02L126.571 547.54L127.791 549.885L127.813 557.494C127.933 557.519 128.05 557.543 128.163 557.566C129.612 557.865 130.422 558.031 130.136 559.075L127.813 558.566L127.887 580.203L127.261 582.049L126.391 582.452C121.977 582.516 118.251 582.516 113.848 582.452L112.978 582.049L112.351 580.203L112.415 558.555L110.059 559.075C109.768 558.036 110.578 557.868 112.009 557.57C112.142 557.543 112.281 557.514 112.425 557.483L112.446 549.885L113.657 547.54L115.376 547.02L115.439 547.561L113.857 548.091L113.507 549.1L115.757 548.102ZM113.964 578.314L116.331 578.887C119.248 578.801 120.978 578.801 123.907 578.887L126.274 578.314L124.788 574.525C121.669 574.536 118.57 574.536 115.45 574.525L113.964 578.314ZM113.571 558.777L114.739 562.375C116.055 561.749 124.183 561.749 125.499 562.375L126.666 558.777C126.38 558.653 126.11 558.532 125.851 558.416C124.25 557.699 123.072 557.172 121.053 557.282H119.185C117.167 557.172 115.99 557.699 114.388 558.416L114.386 558.417C114.127 558.532 113.858 558.653 113.571 558.777ZM125.913 563.128L126.805 560.836V572.265L125.68 572.859L125.913 563.128ZM114.313 563.128L113.423 560.836L113.434 572.265L114.548 572.859L114.313 563.128Z" fill="#454545"/>
<path fill-rule="evenodd" clip-rule="evenodd" d="M48.6196 546.946L48.7574 548.102L46.5071 549.1L46.8575 548.091L48.4386 547.561L48.3755 547.02L46.6566 547.54L45.4462 549.885L45.4246 557.483C45.2808 557.514 45.1421 557.543 45.0087 557.57C43.5778 557.868 42.7681 558.036 43.0587 559.075L45.4147 558.555L45.351 580.203L45.9775 582.049L46.8475 582.452C51.2512 582.516 54.9766 582.516 59.3907 582.452L60.2613 582.049L60.8867 580.203L60.8131 558.566L63.1364 559.075C63.4218 558.031 62.6117 557.865 61.163 557.566L61.1605 557.566C61.0484 557.543 60.9326 557.519 60.8131 557.494L60.7909 549.885L59.5706 547.54L57.8516 547.02L57.7991 547.561L59.3692 548.091L59.7195 549.1L57.4803 548.102L57.6187 546.946C56.5915 546.839 55.8271 546.751 55.2308 546.682C54.1716 546.561 53.6426 546.5 53.1136 546.5C52.5857 546.5 52.0577 546.561 51.0029 546.682C50.4077 546.751 49.6448 546.839 48.6196 546.946ZM49.3307 578.887L46.9637 578.314L48.4497 574.525C51.5699 574.536 54.6689 574.536 57.788 574.525L59.274 578.314L56.9069 578.887C53.9782 578.801 52.2484 578.801 49.3307 578.887ZM47.7385 562.375L46.5713 558.777C46.8583 558.653 47.1287 558.532 47.388 558.416C48.9894 557.699 50.1669 557.172 52.1853 557.282H54.0529C56.0721 557.172 57.2496 557.699 58.8514 558.416C59.1102 558.532 59.3801 558.653 59.6663 558.777L58.4992 562.375C57.1831 561.749 49.0546 561.749 47.7385 562.375ZM59.8047 560.836L58.9131 563.128L58.6801 572.859L59.8047 572.265V560.836ZM46.423 560.836L47.3135 563.128L47.5476 572.859L46.4335 572.265L46.423 560.836Z" fill="#454545"/>
</g>
</g>
<g id="_">
<rect x="217.5" y="2" width="188" height="265" fill="white"/>
<rect x="217.5" y="2" width="188" height="265" stroke="#454545" stroke-width="3"/>
<rect id="Rectangle 87" x="348.5" y="210" width="57" height="57" stroke="#454545" stroke-width="3"/>
<rect id="Rectangle 89" x="305.5" y="60" width="100" height="100" stroke="#454545" stroke-width="3"/>
<rect id="Rectangle 97" x="355.5" y="160" width="25" height="25" stroke="#454545" stroke-width="3"/>
<rect id="Rectangle 86" x="405.5" y="185" width="25" height="25" stroke="#454545" stroke-width="3"/>
</g>
<g id="cloakroom">
<rect x="380.5" y="160" width="25" height="25" fill="white"/>
<rect x="380.5" y="160" width="25" height="25" stroke="#454545" stroke-width="3"/>
<path id="Vector" d="M399.835 176.41C399.835 176.875 399.704 177.326 399.461 177.716C399.22 178.105 398.861 178.437 398.41 178.639C398.11 178.773 397.77 178.847 397.412 178.846H388.588C388.231 178.847 387.891 178.773 387.591 178.638C387.29 178.504 387.03 178.312 386.819 178.084C386.397 177.626 386.167 177.028 386.166 176.41C386.165 176.075 386.235 175.734 386.384 175.412C386.532 175.091 386.761 174.793 387.061 174.549L391.867 170.635L391.641 170.452C391.347 170.213 391.122 169.915 390.973 169.593C390.823 169.27 390.749 168.922 390.749 168.576C390.749 168.229 390.822 167.881 390.972 167.558C391.12 167.235 391.346 166.936 391.641 166.697C392.084 166.335 392.629 166.154 393.169 166.154C393.709 166.154 394.253 166.336 394.696 166.698L395.407 167.278L394.502 168.389L393.79 167.809C393.608 167.661 393.39 167.588 393.169 167.588C392.946 167.588 392.727 167.661 392.545 167.809C392.422 167.911 392.333 168.028 392.273 168.159C392.213 168.289 392.182 168.433 392.182 168.576C392.182 168.718 392.213 168.861 392.273 168.991C392.333 169.121 392.422 169.239 392.546 169.34L393.453 170.079L398.94 174.549C399.24 174.793 399.468 175.091 399.617 175.412C399.766 175.734 399.835 176.075 399.835 176.41ZM398.33 176.786C398.378 176.666 398.402 176.537 398.402 176.41C398.402 176.273 398.374 176.139 398.317 176.015C398.259 175.89 398.172 175.772 398.035 175.66L393 171.559L387.966 175.661C387.829 175.772 387.742 175.89 387.684 176.015C387.626 176.139 387.599 176.273 387.599 176.41C387.598 176.6 387.654 176.796 387.756 176.959C387.857 177.123 388 177.251 388.175 177.33C388.291 177.381 388.425 177.413 388.588 177.413H397.412C397.535 177.413 397.64 177.395 397.735 177.364C397.83 177.333 397.914 177.289 397.989 177.235C398.141 177.126 398.261 176.967 398.33 176.786Z" fill="#454545"/>
</g>
<g id="toilets">
<rect width="103" height="28" transform="translate(304 33.5)" fill="white"/>
<g id="Frame 213">
<rect x="305.5" y="35" width="25" height="25" stroke="#454545" stroke-width="3"/>
<g id="Group">
<g id="Group_2">
<g id="Group_3">
<path id="Vector_2" d="M312.91 45.0962H312.671C311.442 45.0962 310.42 46.1019 310.42 47.3471V49.566C310.42 49.9172 310.707 50.2046 311.058 50.2046H311.585V52.9823C311.585 53.4772 311.984 53.8763 312.479 53.8763H313.086C313.581 53.8763 313.98 53.4772 313.98 52.9823V50.2046H314.507C314.858 50.2046 315.145 49.9172 315.145 49.566V47.3471C315.161 46.1019 314.155 45.0962 312.91 45.0962Z" fill="#454545"/>
<path id="Vector_3" d="M312.799 44.6336C313.769 44.6336 314.555 43.8474 314.555 42.8776C314.555 41.9078 313.769 41.1216 312.799 41.1216C311.829 41.1216 311.043 41.9078 311.043 42.8776C311.043 43.8474 311.829 44.6336 312.799 44.6336Z" fill="#454545"/>
<path id="Vector_4" d="M325.553 50.7154L324.388 46.3094C324.196 45.5911 323.558 45.0962 322.824 45.0962C322.089 45.0962 321.435 45.5911 321.259 46.3094L320.094 50.7154C319.966 51.1784 320.317 51.6413 320.812 51.6413H321.642L322.089 53.4612C322.153 53.7166 322.377 53.8922 322.632 53.8922H323.047C323.302 53.8922 323.526 53.7166 323.59 53.4612L324.021 51.6413H324.851C325.33 51.6413 325.681 51.1784 325.553 50.7154Z" fill="#454545"/>
<path id="Vector_5" d="M322.823 44.6336C323.793 44.6336 324.579 43.8474 324.579 42.8776C324.579 41.9078 323.793 41.1216 322.823 41.1216C321.854 41.1216 321.067 41.9078 321.067 42.8776C321.067 43.8474 321.854 44.6336 322.823 44.6336Z" fill="#454545"/>
<rect id="Rectangle 99" x="317.188" y="41.1079" width="1.24652" height="12.7738" fill="#454545"/>
</g>
</g>
</g>
</g>
<g id="Frame 215">
<rect x="330.5" y="35" width="25" height="25" stroke="#454545" stroke-width="3"/>
<g id="Group_4">
<g id="Group_5">
<g id="Group_6">
<path id="Vector_6" d="M337.91 45.0962H337.671C336.442 45.0962 335.42 46.1019 335.42 47.3471V49.566C335.42 49.9172 335.707 50.2046 336.058 50.2046H336.585V52.9823C336.585 53.4772 336.984 53.8763 337.479 53.8763H338.086C338.581 53.8763 338.98 53.4772 338.98 52.9823V50.2046H339.507C339.858 50.2046 340.145 49.9172 340.145 49.566V47.3471C340.161 46.1019 339.155 45.0962 337.91 45.0962Z" fill="#454545"/>
<path id="Vector_7" d="M337.799 44.6336C338.769 44.6336 339.555 43.8474 339.555 42.8776C339.555 41.9078 338.769 41.1216 337.799 41.1216C336.829 41.1216 336.043 41.9078 336.043 42.8776C336.043 43.8474 336.829 44.6336 337.799 44.6336Z" fill="#454545"/>
<path id="Vector_8" d="M350.553 50.7154L349.388 46.3094C349.196 45.5911 348.558 45.0962 347.824 45.0962C347.089 45.0962 346.435 45.5911 346.259 46.3094L345.094 50.7154C344.966 51.1784 345.317 51.6413 345.812 51.6413H346.642L347.089 53.4612C347.153 53.7166 347.377 53.8922 347.632 53.8922H348.047C348.302 53.8922 348.526 53.7166 348.59 53.4612L349.021 51.6413H349.851C350.33 51.6413 350.681 51.1784 350.553 50.7154Z" fill="#454545"/>
<path id="Vector_9" d="M347.823 44.6336C348.793 44.6336 349.579 43.8474 349.579 42.8776C349.579 41.9078 348.793 41.1216 347.823 41.1216C346.854 41.1216 346.067 41.9078 346.067 42.8776C346.067 43.8474 346.854 44.6336 347.823 44.6336Z" fill="#454545"/>
<rect id="Rectangle 99_2" x="342.188" y="41.1079" width="1.24652" height="12.7738" fill="#454545"/>
</g>
</g>
</g>
</g>
<g id="Frame 216">
<rect x="355.5" y="35" width="25" height="25" stroke="#454545" stroke-width="3"/>
<g id="Group_7">
<g id="Group_8">
<g id="Group_9">
<path id="Vector_10" d="M362.91 45.0962H362.671C361.442 45.0962 360.42 46.1019 360.42 47.3471V49.566C360.42 49.9172 360.707 50.2046 361.058 50.2046H361.585V52.9823C361.585 53.4772 361.984 53.8763 362.479 53.8763H363.086C363.581 53.8763 363.98 53.4772 363.98 52.9823V50.2046H364.507C364.858 50.2046 365.145 49.9172 365.145 49.566V47.3471C365.161 46.1019 364.155 45.0962 362.91 45.0962Z" fill="#454545"/>
<path id="Vector_11" d="M362.799 44.6336C363.769 44.6336 364.555 43.8474 364.555 42.8776C364.555 41.9078 363.769 41.1216 362.799 41.1216C361.829 41.1216 361.043 41.9078 361.043 42.8776C361.043 43.8474 361.829 44.6336 362.799 44.6336Z" fill="#454545"/>
<path id="Vector_12" d="M375.553 50.7154L374.388 46.3094C374.196 45.5911 373.558 45.0962 372.824 45.0962C372.089 45.0962 371.435 45.5911 371.259 46.3094L370.094 50.7154C369.966 51.1784 370.317 51.6413 370.812 51.6413H371.642L372.089 53.4612C372.153 53.7166 372.377 53.8922 372.632 53.8922H373.047C373.302 53.8922 373.526 53.7166 373.59 53.4612L374.021 51.6413H374.851C375.33 51.6413 375.681 51.1784 375.553 50.7154Z" fill="#454545"/>
<path id="Vector_13" d="M372.823 44.6336C373.793 44.6336 374.579 43.8474 374.579 42.8776C374.579 41.9078 373.793 41.1216 372.823 41.1216C371.854 41.1216 371.067 41.9078 371.067 42.8776C371.067 43.8474 371.854 44.6336 372.823 44.6336Z" fill="#454545"/>
<rect id="Rectangle 99_3" x="367.188" y="41.1079" width="1.24652" height="12.7738" fill="#454545"/>
</g>
</g>
</g>
</g>
<g id="Frame 214">
<rect x="380.5" y="35" width="25" height="25" stroke="#454545" stroke-width="3"/>
<g id="Group_10">
<g id="Group_11">
<g id="Group_12">
<path id="Vector_14" d="M387.91 45.0962H387.671C386.442 45.0962 385.42 46.1019 385.42 47.3471V49.566C385.42 49.9172 385.707 50.2046 386.058 50.2046H386.585V52.9823C386.585 53.4772 386.984 53.8763 387.479 53.8763H388.086C388.581 53.8763 388.98 53.4772 388.98 52.9823V50.2046H389.507C389.858 50.2046 390.145 49.9172 390.145 49.566V47.3471C390.161 46.1019 389.155 45.0962 387.91 45.0962Z" fill="#454545"/>
<path id="Vector_15" d="M387.799 44.6336C388.769 44.6336 389.555 43.8474 389.555 42.8776C389.555 41.9078 388.769 41.1216 387.799 41.1216C386.829 41.1216 386.043 41.9078 386.043 42.8776C386.043 43.8474 386.829 44.6336 387.799 44.6336Z" fill="#454545"/>
<path id="Vector_16" d="M400.553 50.7154L399.388 46.3094C399.196 45.5911 398.558 45.0962 397.824 45.0962C397.089 45.0962 396.435 45.5911 396.259 46.3094L395.094 50.7154C394.966 51.1784 395.317 51.6413 395.812 51.6413H396.642L397.089 53.4612C397.153 53.7166 397.377 53.8922 397.632 53.8922H398.047C398.302 53.8922 398.526 53.7166 398.59 53.4612L399.021 51.6413H399.851C400.33 51.6413 400.681 51.1784 400.553 50.7154Z" fill="#454545"/>
<path id="Vector_17" d="M397.823 44.6336C398.793 44.6336 399.579 43.8474 399.579 42.8776C399.579 41.9078 398.793 41.1216 397.823 41.1216C396.854 41.1216 396.067 41.9078 396.067 42.8776C396.067 43.8474 396.854 44.6336 397.823 44.6336Z" fill="#454545"/>
<rect id="Rectangle 99_4" x="392.188" y="41.1079" width="1.24652" height="12.7738" fill="#454545"/>
</g>
</g>
</g>
</g>
</g>
<g id="showers">
<rect width="47.1631" height="268" transform="translate(216 0.5)" fill="white"/>
<g id="Frame 200_2">
<rect x="217.498" y="1.99788" width="44.1674" height="44.1674" stroke="#454545" stroke-width="2.99575"/>
<path id="Vector_18" fill-rule="evenodd" clip-rule="evenodd" d="M229.628 31.5836C232.646 31.5836 235.11 29.243 235.11 26.2422C235.11 24.0816 231.168 18.8602 229.751 16.5796C228.273 19.1003 224.146 24.0816 224.146 26.2422C224.146 29.243 226.609 31.5836 229.628 31.5836Z" fill="#454545"/>
<path id="Vector_19" d="M255.018 28.632C255.018 29.1727 254.866 29.6976 254.584 30.1514C254.302 30.6052 253.885 30.9911 253.359 31.2259C253.01 31.3817 252.615 31.4683 252.199 31.4673H241.929C241.514 31.4683 241.118 31.3817 240.769 31.2248C240.419 31.069 240.116 30.8455 239.871 30.5797C239.379 30.0469 239.111 29.3517 239.11 28.632C239.109 28.2427 239.19 27.8455 239.364 27.4706C239.536 27.0968 239.803 26.7499 240.152 26.4661L245.745 21.9112L245.482 21.6977C245.14 21.4197 244.878 21.0736 244.704 20.6988C244.53 20.3229 244.444 19.918 244.444 19.5142C244.444 19.1104 244.53 18.7056 244.703 18.3297C244.876 17.9538 245.139 17.6066 245.482 17.3276C245.998 16.9072 246.632 16.6958 247.26 16.6958C247.889 16.6958 248.522 16.9082 249.038 17.3286L249.865 18.0038L248.812 19.2976L247.984 18.6224C247.771 18.45 247.518 18.3644 247.26 18.3644C247.001 18.3644 246.746 18.45 246.534 18.6224C246.391 18.7403 246.287 18.8772 246.217 19.0296C246.147 19.181 246.112 19.3479 246.112 19.5145C246.112 19.6803 246.147 19.8459 246.217 19.9972C246.287 20.1486 246.391 20.2865 246.535 20.4045L247.591 21.2644L253.977 26.4661C254.326 26.7499 254.591 27.0968 254.765 27.4706C254.938 27.8455 255.018 28.2427 255.018 28.632ZM253.267 29.07C253.323 28.93 253.351 28.7797 253.351 28.6317C253.351 28.4728 253.318 28.3169 253.252 28.1724C253.184 28.0266 253.083 27.89 252.924 27.7597L247.064 22.9868L241.205 27.7599C241.046 27.89 240.944 28.0268 240.877 28.1727C240.81 28.3172 240.778 28.473 240.778 28.632C240.777 28.8534 240.842 29.0813 240.961 29.2706C241.079 29.462 241.245 29.611 241.448 29.7023C241.584 29.7623 241.739 29.7992 241.929 29.7992H252.199C252.341 29.7992 252.463 29.7781 252.574 29.7423C252.684 29.7068 252.782 29.6555 252.87 29.5923C253.047 29.4651 253.186 29.2803 253.267 29.07Z" fill="#454545"/>
</g>
<g id="Frame 206">
<rect x="217.498" y="46.1654" width="44.1674" height="44.1674" stroke="#454545" stroke-width="2.99575"/>
<path id="Vector_20" fill-rule="evenodd" clip-rule="evenodd" d="M229.628 75.7511C232.646 75.7511 235.11 73.4105 235.11 70.4097C235.11 68.2491 231.168 63.0277 229.751 60.7471C228.273 63.2677 224.146 68.2491 224.146 70.4097C224.146 73.4105 226.609 75.7511 229.628 75.7511Z" fill="#454545"/>
<path id="Vector_21" d="M255.018 72.7995C255.018 73.3402 254.866 73.865 254.584 74.3189C254.302 74.7727 253.885 75.1586 253.359 75.3934C253.01 75.5492 252.615 75.6358 252.199 75.6348H241.929C241.514 75.6358 241.118 75.5492 240.769 75.3923C240.419 75.2365 240.116 75.013 239.871 74.7471C239.379 74.2144 239.111 73.5192 239.11 72.7995C239.109 72.4102 239.19 72.013 239.364 71.6381C239.536 71.2643 239.803 70.9174 240.152 70.6336L245.745 66.0787L245.482 65.8652C245.14 65.5872 244.878 65.2411 244.704 64.8662C244.53 64.4903 244.444 64.0855 244.444 63.6817C244.444 63.2779 244.53 62.873 244.703 62.4972C244.876 62.1213 245.139 61.7741 245.482 61.495C245.998 61.0747 246.632 60.8633 247.26 60.8633C247.889 60.8633 248.522 61.0757 249.038 61.4961L249.865 62.1713L248.812 63.4651L247.984 62.7899C247.771 62.6175 247.518 62.5319 247.26 62.5319C247.001 62.5319 246.746 62.6175 246.534 62.7899C246.391 62.9078 246.287 63.0447 246.217 63.1971C246.147 63.3484 246.112 63.5153 246.112 63.682C246.112 63.8478 246.147 64.0134 246.217 64.1647C246.287 64.3161 246.391 64.454 246.535 64.5719L247.591 65.4319L253.977 70.6336C254.326 70.9174 254.591 71.2643 254.765 71.6381C254.938 72.013 255.018 72.4102 255.018 72.7995ZM253.267 73.2375C253.323 73.0975 253.351 72.9472 253.351 72.7992C253.351 72.6402 253.318 72.4844 253.252 72.3399C253.184 72.1941 253.083 72.0574 252.924 71.9271L247.064 67.1542L241.205 71.9274C241.046 72.0574 240.944 72.1943 240.877 72.3402C240.81 72.4847 240.778 72.6405 240.778 72.7995C240.777 73.0209 240.842 73.2488 240.961 73.4381C241.079 73.6295 241.245 73.7784 241.448 73.8698C241.584 73.9298 241.739 73.9667 241.929 73.9667H252.199C252.341 73.9667 252.463 73.9456 252.574 73.9098C252.684 73.8743 252.782 73.8229 252.87 73.7598C253.047 73.6326 253.186 73.4478 253.267 73.2375Z" fill="#454545"/>
</g>
<g id="Frame 207">
<rect x="217.498" y="90.3328" width="44.1674" height="44.1674" stroke="#454545" stroke-width="2.99575"/>
<path id="Vector_22" fill-rule="evenodd" clip-rule="evenodd" d="M229.628 119.919C232.646 119.919 235.11 117.578 235.11 114.577C235.11 112.417 231.168 107.195 229.751 104.915C228.273 107.435 224.146 112.417 224.146 114.577C224.146 117.578 226.609 119.919 229.628 119.919Z" fill="#454545"/>
<path id="Vector_23" d="M255.018 116.967C255.018 117.508 254.866 118.033 254.584 118.486C254.302 118.94 253.885 119.326 253.359 119.561C253.01 119.717 252.615 119.803 252.199 119.802H241.929C241.514 119.803 241.118 119.717 240.769 119.56C240.419 119.404 240.116 119.18 239.871 118.915C239.379 118.382 239.111 117.687 239.11 116.967C239.109 116.578 239.19 116.18 239.364 115.806C239.536 115.432 239.803 115.085 240.152 114.801L245.745 110.246L245.482 110.033C245.14 109.755 244.878 109.409 244.704 109.034C244.53 108.658 244.444 108.253 244.444 107.849C244.444 107.445 244.53 107.041 244.703 106.665C244.876 106.289 245.139 105.942 245.482 105.663C245.998 105.242 246.632 105.031 247.26 105.031C247.889 105.031 248.522 105.243 249.038 105.664L249.865 106.339L248.812 107.633L247.984 106.957C247.771 106.785 247.518 106.699 247.26 106.699C247.001 106.699 246.746 106.785 246.534 106.957C246.391 107.075 246.287 107.212 246.217 107.365C246.147 107.516 246.112 107.683 246.112 107.849C246.112 108.015 246.147 108.181 246.217 108.332C246.287 108.484 246.391 108.621 246.535 108.739L247.591 109.599L253.977 114.801C254.326 115.085 254.591 115.432 254.765 115.806C254.938 116.18 255.018 116.578 255.018 116.967ZM253.267 117.405C253.323 117.265 253.351 117.115 253.351 116.967C253.351 116.808 253.318 116.652 253.252 116.507C253.184 116.362 253.083 116.225 252.924 116.095L247.064 111.322L241.205 116.095C241.046 116.225 240.944 116.362 240.877 116.508C240.81 116.652 240.778 116.808 240.778 116.967C240.777 117.188 240.842 117.416 240.961 117.606C241.079 117.797 241.245 117.946 241.448 118.037C241.584 118.097 241.739 118.134 241.929 118.134H252.199C252.341 118.134 252.463 118.113 252.574 118.077C252.684 118.042 252.782 117.99 252.87 117.927C253.047 117.8 253.186 117.615 253.267 117.405Z" fill="#454545"/>
</g>
<g id="Frame 208">
<rect x="217.498" y="134.5" width="44.1674" height="44.1674" stroke="#454545" stroke-width="2.99575"/>
<path id="Vector_24" fill-rule="evenodd" clip-rule="evenodd" d="M229.628 164.086C232.646 164.086 235.11 161.745 235.11 158.744C235.11 156.584 231.168 151.362 229.751 149.082C228.273 151.602 224.146 156.584 224.146 158.744C224.146 161.745 226.609 164.086 229.628 164.086Z" fill="#454545"/>
<path id="Vector_25" d="M255.018 161.134C255.018 161.675 254.866 162.2 254.584 162.653C254.302 163.107 253.885 163.493 253.359 163.728C253.01 163.884 252.615 163.97 252.199 163.969H241.929C241.514 163.97 241.118 163.884 240.769 163.727C240.419 163.571 240.116 163.347 239.871 163.082C239.379 162.549 239.111 161.854 239.11 161.134C239.109 160.745 239.19 160.347 239.364 159.973C239.536 159.599 239.803 159.252 240.152 158.968L245.745 154.413L245.482 154.2C245.14 153.922 244.878 153.576 244.704 153.201C244.53 152.825 244.444 152.42 244.444 152.016C244.444 151.612 244.53 151.208 244.703 150.832C244.876 150.456 245.139 150.109 245.482 149.83C245.998 149.409 246.632 149.198 247.26 149.198C247.889 149.198 248.522 149.41 249.038 149.831L249.865 150.506L248.812 151.8L247.984 151.124C247.771 150.952 247.518 150.866 247.26 150.866C247.001 150.866 246.746 150.952 246.534 151.124C246.391 151.242 246.287 151.379 246.217 151.532C246.147 151.683 246.112 151.85 246.112 152.016C246.112 152.182 246.147 152.348 246.217 152.499C246.287 152.651 246.391 152.788 246.535 152.906L247.591 153.766L253.977 158.968C254.326 159.252 254.591 159.599 254.765 159.973C254.938 160.347 255.018 160.745 255.018 161.134ZM253.267 161.572C253.323 161.432 253.351 161.282 253.351 161.134C253.351 160.975 253.318 160.819 253.252 160.674C253.184 160.529 253.083 160.392 252.924 160.262L247.064 155.489L241.205 160.262C241.046 160.392 240.944 160.529 240.877 160.675C240.81 160.819 240.778 160.975 240.778 161.134C240.777 161.355 240.842 161.583 240.961 161.773C241.079 161.964 241.245 162.113 241.448 162.204C241.584 162.264 241.739 162.301 241.929 162.301H252.199C252.341 162.301 252.463 162.28 252.574 162.244C252.684 162.209 252.782 162.157 252.87 162.094C253.047 161.967 253.186 161.782 253.267 161.572Z" fill="#454545"/>
</g>
<g id="Frame 209">
<rect x="217.498" y="178.667" width="44.1674" height="44.1674" stroke="#454545" stroke-width="2.99575"/>
<path id="Vector_26" fill-rule="evenodd" clip-rule="evenodd" d="M229.628 208.253C232.646 208.253 235.11 205.912 235.11 202.912C235.11 200.751 231.168 195.53 229.751 193.249C228.273 195.77 224.146 200.751 224.146 202.912C224.146 205.912 226.609 208.253 229.628 208.253Z" fill="#454545"/>
<path id="Vector_27" d="M255.018 205.301C255.018 205.842 254.866 206.367 254.584 206.821C254.302 207.275 253.885 207.661 253.359 207.895C253.01 208.051 252.615 208.138 252.199 208.137H241.929C241.514 208.138 241.118 208.051 240.769 207.894C240.419 207.738 240.116 207.515 239.871 207.249C239.379 206.716 239.111 206.021 239.11 205.301C239.109 204.912 239.19 204.515 239.364 204.14C239.536 203.766 239.803 203.419 240.152 203.136L245.745 198.581L245.482 198.367C245.14 198.089 244.878 197.743 244.704 197.368C244.53 196.992 244.444 196.587 244.444 196.184C244.444 195.78 244.53 195.375 244.703 194.999C244.876 194.623 245.139 194.276 245.482 193.997C245.998 193.577 246.632 193.365 247.26 193.365C247.889 193.365 248.522 193.578 249.038 193.998L249.865 194.673L248.812 195.967L247.984 195.292C247.771 195.119 247.518 195.034 247.26 195.034C247.001 195.034 246.746 195.119 246.534 195.292C246.391 195.41 246.287 195.547 246.217 195.699C246.147 195.85 246.112 196.017 246.112 196.184C246.112 196.35 246.147 196.515 246.217 196.667C246.287 196.818 246.391 196.956 246.535 197.074L247.591 197.934L253.977 203.136C254.326 203.419 254.591 203.766 254.765 204.14C254.938 204.515 255.018 204.912 255.018 205.301ZM253.267 205.739C253.323 205.599 253.351 205.449 253.351 205.301C253.351 205.142 253.318 204.986 253.252 204.842C253.184 204.696 253.083 204.559 252.924 204.429L247.064 199.656L241.205 204.429C241.046 204.559 240.944 204.696 240.877 204.842C240.81 204.987 240.778 205.142 240.778 205.301C240.777 205.523 240.842 205.751 240.961 205.94C241.079 206.131 241.245 206.28 241.448 206.372C241.584 206.432 241.739 206.469 241.929 206.469H252.199C252.341 206.469 252.463 206.448 252.574 206.412C252.684 206.376 252.782 206.325 252.87 206.262C253.047 206.135 253.186 205.95 253.267 205.739Z" fill="#454545"/>
</g>
<g id="Frame 210">
<rect x="217.498" y="222.835" width="44.1674" height="44.1674" stroke="#454545" stroke-width="2.99575"/>
<path id="Vector_28" fill-rule="evenodd" clip-rule="evenodd" d="M229.628 252.421C232.646 252.421 235.11 250.08 235.11 247.079C235.11 244.919 231.168 239.697 229.751 237.417C228.273 239.937 224.146 244.919 224.146 247.079C224.146 250.08 226.609 252.421 229.628 252.421Z" fill="#454545"/>
<path id="Vector_29" d="M255.018 249.469C255.018 250.01 254.866 250.534 254.584 250.988C254.302 251.442 253.885 251.828 253.359 252.063C253.01 252.219 252.615 252.305 252.199 252.304H241.929C241.514 252.305 241.118 252.219 240.769 252.062C240.419 251.906 240.116 251.682 239.871 251.417C239.379 250.884 239.111 250.189 239.11 249.469C239.109 249.08 239.19 248.682 239.364 248.308C239.536 247.934 239.803 247.587 240.152 247.303L245.745 242.748L245.482 242.535C245.14 242.257 244.878 241.911 244.704 241.536C244.53 241.16 244.444 240.755 244.444 240.351C244.444 239.947 244.53 239.542 244.703 239.167C244.876 238.791 245.139 238.443 245.482 238.164C245.998 237.744 246.632 237.533 247.26 237.533C247.889 237.533 248.522 237.745 249.038 238.166L249.865 238.841L248.812 240.134L247.984 239.459C247.771 239.287 247.518 239.201 247.26 239.201C247.001 239.201 246.746 239.287 246.534 239.459C246.391 239.577 246.287 239.714 246.217 239.867C246.147 240.018 246.112 240.185 246.112 240.351C246.112 240.517 246.147 240.683 246.217 240.834C246.287 240.986 246.391 241.123 246.535 241.241L247.591 242.101L253.977 247.303C254.326 247.587 254.591 247.934 254.765 248.308C254.938 248.682 255.018 249.08 255.018 249.469ZM253.267 249.907C253.323 249.767 253.351 249.617 253.351 249.469C253.351 249.31 253.318 249.154 253.252 249.009C253.184 248.863 253.083 248.727 252.924 248.597L247.064 243.824L241.205 248.597C241.046 248.727 240.944 248.864 240.877 249.01C240.81 249.154 240.778 249.31 240.778 249.469C240.777 249.69 240.842 249.918 240.961 250.108C241.079 250.299 241.245 250.448 241.448 250.539C241.584 250.599 241.739 250.636 241.929 250.636H252.199C252.341 250.636 252.463 250.615 252.574 250.579C252.684 250.544 252.782 250.492 252.87 250.429C253.047 250.302 253.186 250.117 253.267 249.907Z" fill="#454545"/>
</g>
</g>
</g>
</svg>
